# xmcd CD database file
# Generated: Son Dez 15 22:15:33 2002 by KSCD
# 
# Track frame offsets:
#       150
#       13620
#       27525
#       39760
#       54005
#       67477
#       81422
#       95892
#       108857
#       121997
#       134455
#       147730
#       160807
#       174432
#       187480
#       200070
#       211950
#       224057
#       236815
#       248002
#       260760
#       273392
#
# Disc length: 3800 seconds
#
# Revision: 9
# Processed by: cddbd v1.4PL0 Copyright (c) Steve Scherf et al.
# Submitted via: Kscd 1.3.3
#
DISCID=600ed616
DTITLE=Kokomo Arnold - Complete Recorded Works Vol 4 1937-1938
DYEAR=1900
DGENRE=
TTITLE0=Mean Old Twister
TTITLE1=Red Beans and Rice
TTITLE2=Set Down Gal
TTITLE3=Big Ship Blues
TTITLE4=Crying Blues
TTITLE5=Grandpa Got Drunk
TTITLE6=Black Mattie
TTITLE7=Neck Bone Blues
TTITLE8=Buddy Brown Blues (Rolling Time)
TTITLE9=Rocky Road Blues
TTITLE10=Head Cutting Blues
TTITLE11=Broke Man Blues
TTITLE12=Back On The Job
TTITLE13=Shine On,Moon(Shine On,Shine On)
TTITLE14=Your Ways And Actions
TTITLE15=Tired of Running From Door To Door
TTITLE16=My Well Is Dry
TTITLE17=Midnight Blues
TTITLE18=Goin' Down in Galilee (Swing Along With Me)
TTITLE19=Bad Luck Blues
TTITLE20=Kid Man Blues
TTITLE21=Something's Hot
EXTD=*HWREG BL 002C4
EXTT0=
EXTT1=
EXTT2=
EXTT3=
EXTT4=
EXTT5=
EXTT6=
EXTT7=
EXTT8=
EXTT9=
EXTT10=
EXTT11=
EXTT12=
EXTT13=
EXTT14=
EXTT15=
EXTT16=
EXTT17=
EXTT18=
EXTT19=
EXTT20=
EXTT21=
PLAYORDER=
